<svg baseProfile="full" xmlns="http://www.w3.org/2000/svg" viewBox="0 0 1400 800"><rect x="1300" y="400" rx="40" ry="40" width="300" height="300" stroke="#81C995" fill="#81C995"><animateTransform attributeType="XML" attributeName="transform" begin="0s" dur="35s" type="rotate" from="0 1450 550" to="360 1450 550" repeatCount="indefinite"/></rect><path d="M100 350a150 150 0 11300 0q0 20-20 20H120q-20 0-20-20" stroke="#FDD663" fill="#FDD663"><animateMotion path="M 800 -200 L 800 -300 L 800 -200" dur="20s" begin="0s" repeatCount="indefinite"/><animateTransform attributeType="XML" attributeName="transform" begin="0s" dur="30s" type="rotate" values="0 210 530 ; -30 210 530 ; 0 210 530" keyTimes="0 ; 0.5 ; 1" repeatCount="indefinite"/></path><circle cx="200" cy="150" r="20" stroke="#1a73e8" fill="#1a73e8"><animateMotion path="M 0 0 L 40 20 Z" dur="5s" repeatCount="indefinite"/></circle><path d="M165 580h105q5-2 0-10l-47-87q-3-3-6 0l-52 87q-5 8 0 10" stroke="#EE675C" fill="#EE675C"><animateTransform attributeType="XML" attributeName="transform" begin="0s" dur="35s" type="rotate" from="0 210 530" to="360 210 530" repeatCount="indefinite"/></path><circle cx="1200" cy="600" r="30" stroke="#F1F3F4" fill="#F1F3F4"><animateMotion path="M 0 0 L -20 40 Z" dur="9s" repeatCount="indefinite"/></circle><path d="M100 350a40 40 0 1180 0v80a40 40 0 11-80 0z" stroke="#F1F3F4" fill="#F1F3F4"><animateMotion path="M 140 390 L 180 360 L 140 390" dur="20s" begin="0s" repeatCount="indefinite"/><animateTransform attributeType="XML" attributeName="transform" begin="0s" dur="30s" type="rotate" values="0 140 390; -60 140 390; 0 140 390" keyTimes="0 ; 0.5 ; 1" repeatCount="indefinite"/></path><rect x="400" y="600" rx="40" ry="40" width="100" height="100" stroke="#81C995" fill="#81C995"><animateTransform attributeType="XML" attributeName="transform" begin="0s" dur="35s" type="rotate" from="-30 550 750" to="330 550 750" repeatCount="indefinite"/></rect></svg>